<svg width="1064" height="395" viewBox="0 0 1064 395" fill="none" xmlns="http://www.w3.org/2000/svg">
<path d="M123.082 254H97.3777L136.544 140.545H167.456L206.567 254H180.862L152.443 166.472H151.557L123.082 254ZM121.476 209.405H182.192V228.129H121.476V209.405ZM243.378 204.807V254H219.779V140.545H242.714V183.922H243.711C245.631 178.899 248.733 174.966 253.018 172.122C257.302 169.241 262.675 167.801 269.138 167.801C275.047 167.801 280.199 169.094 284.594 171.679C289.026 174.227 292.461 177.902 294.898 182.703C297.373 187.467 298.591 193.173 298.555 199.821V254H274.955V204.031C274.992 198.787 273.662 194.706 270.966 191.788C268.307 188.871 264.577 187.412 259.776 187.412C256.563 187.412 253.719 188.095 251.245 189.462C248.807 190.828 246.887 192.822 245.483 195.445C244.117 198.03 243.415 201.151 243.378 204.807ZM355.573 255.662C346.968 255.662 339.526 253.834 333.247 250.178C327.006 246.484 322.186 241.351 318.789 234.777C315.391 228.166 313.692 220.503 313.692 211.787C313.692 202.997 315.391 195.315 318.789 188.741C322.186 182.131 327.006 176.997 333.247 173.341C339.526 169.648 346.968 167.801 355.573 167.801C364.178 167.801 371.601 169.648 377.843 173.341C384.121 176.997 388.959 182.131 392.357 188.741C395.754 195.315 397.453 202.997 397.453 211.787C397.453 220.503 395.754 228.166 392.357 234.777C388.959 241.351 384.121 246.484 377.843 250.178C371.601 253.834 364.178 255.662 355.573 255.662ZM355.683 237.381C359.598 237.381 362.867 236.273 365.489 234.057C368.111 231.804 370.087 228.739 371.416 224.861C372.783 220.983 373.466 216.57 373.466 211.621C373.466 206.672 372.783 202.259 371.416 198.381C370.087 194.503 368.111 191.437 365.489 189.185C362.867 186.932 359.598 185.805 355.683 185.805C351.732 185.805 348.408 186.932 345.712 189.185C343.053 191.437 341.04 194.503 339.673 198.381C338.344 202.259 337.679 206.672 337.679 211.621C337.679 216.57 338.344 220.983 339.673 224.861C341.04 228.739 343.053 231.804 345.712 234.057C348.408 236.273 351.732 237.381 355.683 237.381ZM451.134 287.682C443.489 287.682 436.933 286.629 431.468 284.524C426.039 282.456 421.718 279.631 418.504 276.048C415.291 272.466 413.205 268.44 412.244 263.972L434.071 261.036C434.736 262.734 435.789 264.322 437.229 265.8C438.669 267.277 440.571 268.459 442.935 269.345C445.335 270.268 448.253 270.73 451.688 270.73C456.821 270.73 461.05 269.474 464.374 266.963C467.735 264.489 469.415 260.334 469.415 254.499V238.932H468.418C467.384 241.295 465.833 243.53 463.764 245.635C461.696 247.74 459.037 249.457 455.787 250.787C452.537 252.116 448.659 252.781 444.154 252.781C437.764 252.781 431.948 251.304 426.703 248.349C421.496 245.358 417.341 240.797 414.239 234.666C411.173 228.499 409.641 220.706 409.641 211.288C409.641 201.649 411.21 193.598 414.35 187.135C417.489 180.672 421.662 175.834 426.869 172.621C432.114 169.408 437.857 167.801 444.098 167.801C448.862 167.801 452.851 168.614 456.064 170.239C459.277 171.827 461.862 173.821 463.82 176.222C465.814 178.585 467.347 180.912 468.418 183.202H469.304V168.909H492.737V254.831C492.737 262.07 490.965 268.126 487.419 273.001C483.874 277.876 478.962 281.533 472.683 283.97C466.442 286.445 459.259 287.682 451.134 287.682ZM451.632 235.054C455.436 235.054 458.649 234.112 461.271 232.229C463.931 230.308 465.962 227.575 467.365 224.03C468.806 220.447 469.526 216.163 469.526 211.178C469.526 206.192 468.824 201.871 467.421 198.214C466.017 194.521 463.986 191.659 461.327 189.628C458.668 187.597 455.436 186.581 451.632 186.581C447.754 186.581 444.486 187.634 441.827 189.739C439.168 191.807 437.155 194.687 435.789 198.381C434.422 202.074 433.739 206.339 433.739 211.178C433.739 216.089 434.422 220.337 435.789 223.919C437.192 227.464 439.205 230.216 441.827 232.173C444.486 234.094 447.754 235.054 451.632 235.054ZM550.296 255.662C541.543 255.662 534.009 253.889 527.693 250.344C521.415 246.761 516.577 241.702 513.179 235.165C509.781 228.591 508.083 220.817 508.083 211.842C508.083 203.089 509.781 195.408 513.179 188.797C516.577 182.186 521.36 177.034 527.527 173.341C533.732 169.648 541.007 167.801 549.354 167.801C554.968 167.801 560.193 168.706 565.031 170.516C569.906 172.288 574.154 174.966 577.773 178.548C581.429 182.131 584.273 186.636 586.304 192.065C588.335 197.457 589.351 203.773 589.351 211.011V217.493H517.5V202.868H567.137C567.137 199.47 566.398 196.46 564.921 193.838C563.443 191.216 561.394 189.166 558.771 187.689C556.186 186.175 553.176 185.418 549.742 185.418C546.159 185.418 542.983 186.249 540.213 187.911C537.48 189.536 535.338 191.733 533.787 194.503C532.236 197.236 531.442 200.283 531.405 203.643V217.548C531.405 221.759 532.181 225.396 533.732 228.462C535.32 231.527 537.554 233.891 540.435 235.553C543.316 237.214 546.732 238.045 550.683 238.045C553.306 238.045 555.706 237.676 557.885 236.938C560.064 236.199 561.929 235.091 563.48 233.614C565.031 232.136 566.213 230.327 567.026 228.185L588.852 229.625C587.744 234.869 585.473 239.449 582.039 243.364C578.641 247.241 574.246 250.27 568.854 252.449C563.499 254.591 557.313 255.662 550.296 255.662Z" fill="white"/>
<rect x="617" y="69" width="388" height="257" rx="21" fill="#F89B25"/>
<path d="M696.734 204.807V254H673.134V140.545H696.069V183.922H697.066C698.987 178.899 702.089 174.966 706.373 172.122C710.657 169.241 716.031 167.801 722.494 167.801C728.403 167.801 733.555 169.094 737.95 171.679C742.382 174.227 745.816 177.902 748.254 182.703C750.728 187.467 751.947 193.173 751.91 199.821V254H728.311V204.031C728.347 198.787 727.018 194.706 724.322 191.788C721.663 188.871 717.933 187.412 713.132 187.412C709.919 187.412 707.075 188.095 704.6 189.462C702.163 190.828 700.242 192.822 698.839 195.445C697.472 198.03 696.771 201.151 696.734 204.807ZM825.049 217.77V168.909H848.648V254H825.991V238.544H825.104C823.184 243.53 819.989 247.537 815.52 250.565C811.089 253.594 805.678 255.108 799.289 255.108C793.601 255.108 788.597 253.815 784.276 251.23C779.955 248.645 776.576 244.97 774.138 240.206C771.738 235.442 770.519 229.736 770.482 223.088V168.909H794.081V218.878C794.118 223.901 795.466 227.871 798.126 230.788C800.785 233.706 804.349 235.165 808.817 235.165C811.661 235.165 814.32 234.518 816.795 233.226C819.269 231.896 821.263 229.939 822.778 227.354C824.329 224.768 825.086 221.574 825.049 217.77ZM867.968 254V140.545H891.568V183.202H892.288C893.322 180.912 894.818 178.585 896.775 176.222C898.769 173.821 901.355 171.827 904.531 170.239C907.744 168.614 911.732 167.801 916.497 167.801C922.701 167.801 928.426 169.426 933.67 172.676C938.914 175.889 943.106 180.746 946.245 187.246C949.384 193.709 950.954 201.815 950.954 211.565C950.954 221.057 949.421 229.071 946.356 235.608C943.328 242.108 939.191 247.038 933.947 250.399C928.74 253.723 922.904 255.385 916.441 255.385C911.862 255.385 907.965 254.628 904.752 253.114C901.576 251.599 898.972 249.697 896.941 247.408C894.91 245.081 893.359 242.736 892.288 240.372H891.235V254H867.968ZM891.069 211.455C891.069 216.514 891.771 220.928 893.174 224.695C894.578 228.462 896.609 231.398 899.268 233.503C901.927 235.571 905.159 236.605 908.963 236.605C912.803 236.605 916.053 235.553 918.713 233.447C921.372 231.305 923.384 228.351 924.751 224.584C926.154 220.78 926.856 216.403 926.856 211.455C926.856 206.543 926.173 202.222 924.806 198.491C923.44 194.761 921.427 191.844 918.768 189.739C916.109 187.634 912.84 186.581 908.963 186.581C905.122 186.581 901.872 187.597 899.213 189.628C896.59 191.659 894.578 194.54 893.174 198.27C891.771 202 891.069 206.395 891.069 211.455Z" fill="black"/>
</svg>
