<svg width="834" height="168" viewBox="0 0 834 168" fill="none" xmlns="http://www.w3.org/2000/svg">
<path d="M21.4446 167.498C-70.9791 -17.9348 137.7 5.2078 601.961 103.722C673.097 118.816 750.233 135.68 833.206 153.835C342.805 -123.72 62.0035 33.0855 21.4446 167.498Z" fill="#FF9EEA"/>
<path fill-rule="evenodd" clip-rule="evenodd" d="M601.961 103.722C673.097 118.816 750.233 135.68 833.206 153.835C756.486 131.623 679.607 114.326 601.961 103.722Z" fill="#923C7F"/>
<path d="M738.44 148.472C775.446 150.586 800.71 152.016 833.206 153.835C750.233 135.68 673.097 118.816 601.961 103.722C137.7 5.2078 -70.9791 -17.9348 21.4446 167.498C224.954 91.3554 415.665 78.2774 601.961 103.722C679.607 114.326 756.486 131.623 833.206 153.835C833.206 153.835 738.381 148.468 738.44 148.472Z" fill="#9A508A"/>
<path d="M116.555 133.885L108.875 133.919L108.815 120.479L83.8555 120.589L83.9149 134.029L76.235 134.063L76.0567 93.7433C76.0485 91.8873 76.6815 90.3165 77.9558 89.0309C79.2939 87.6809 80.8909 87.0019 82.7469 86.9937L116.347 86.845L116.555 133.885ZM108.786 113.759L108.696 93.5989L83.7366 93.7093L83.8512 119.629L89.5857 113.844L108.786 113.759ZM166.437 133.664L159.717 133.694L159.594 105.854L139.434 105.943L139.557 133.783L132.837 133.813L132.62 84.853L139.311 78.1034L139.43 104.983L144.208 100.162L159.568 100.094C161.424 100.086 162.995 100.751 164.281 102.089C165.631 103.363 166.31 104.928 166.318 106.784L166.437 133.664ZM213.446 126.736C213.455 128.592 212.79 130.195 211.452 131.545C210.177 132.83 208.612 133.477 206.756 133.486L186.596 133.575C184.74 133.583 183.138 132.95 181.788 131.676C180.502 130.338 179.855 128.741 179.847 126.885L179.758 106.725C179.749 104.869 180.382 103.298 181.657 102.012C182.995 100.662 184.592 99.9833 186.448 99.9751L206.608 99.8859C208.464 99.8777 210.035 100.543 211.32 101.881C212.67 103.155 213.349 104.72 213.357 106.576L213.446 126.736ZM206.731 127.726L206.633 105.646L186.473 105.735L186.571 127.815L206.731 127.726ZM264.23 99.631L258.495 105.416L234.495 105.523L234.593 127.602L254.753 127.513L254.668 108.313L261.388 108.284L261.558 146.683C261.566 148.539 260.901 150.11 259.562 151.396C258.288 152.746 256.723 153.425 254.867 153.433L227.028 153.556L232.762 147.771L254.842 147.673L254.757 128.377L249.018 133.299L234.618 133.362C232.762 133.371 231.16 132.738 229.81 131.464C228.524 130.125 227.877 128.528 227.869 126.672L227.78 106.512C227.771 104.656 228.404 103.085 229.679 101.8C231.017 100.45 232.614 99.7708 234.47 99.7626L264.23 99.631ZM309.007 133.033L282.127 133.152C280.271 133.16 278.668 132.527 277.318 131.253C276.032 129.915 275.385 128.318 275.377 126.462L275.288 106.302C275.28 104.446 275.913 102.875 277.187 101.59C278.525 100.24 280.122 99.5607 281.978 99.5525L302.138 99.4633C303.994 99.4551 305.565 100.12 306.851 101.458C308.2 102.733 308.879 104.298 308.888 106.154L308.917 112.873L302.227 119.623L283.027 119.708L288.762 113.923L302.202 113.863L302.163 105.223L282.004 105.312L282.101 127.392L308.981 127.273L309.007 133.033ZM354.122 132.834L347.402 132.863L347.279 105.024L327.119 105.113L327.243 132.953L320.523 132.982L320.306 84.0228L326.996 77.2731L327.115 104.153L331.894 99.3317L347.254 99.2637C349.11 99.2555 350.681 99.9206 351.967 101.259C353.316 102.533 353.995 104.098 354.003 105.954L354.122 132.834ZM401.162 132.626L394.442 132.655L394.421 127.855L389.642 132.677L374.282 132.744C372.426 132.753 370.823 132.12 369.474 130.846C368.188 129.507 367.541 127.91 367.532 126.054L367.414 99.1745L374.133 99.1448L374.257 126.985L394.416 126.895L394.293 99.0556L401.013 99.0259L401.162 132.626ZM449.154 125.693C449.162 127.549 448.497 129.152 447.159 130.502C445.885 131.788 444.32 132.435 442.464 132.443L422.304 132.532L422.279 126.868L415.588 133.522L415.368 83.6023L422.058 76.8526L422.177 103.732L426.955 98.9111L442.315 98.8432C444.171 98.835 445.742 99.5 447.028 100.838C448.378 102.112 449.057 103.677 449.065 105.533L449.154 125.693ZM442.438 126.683L442.341 104.603L422.181 104.692L422.279 126.772L442.438 126.683ZM472.224 132.311L463.584 132.349L463.55 124.67L472.19 124.631L472.224 132.311ZM520.193 125.379C520.202 127.235 519.537 128.838 518.199 130.188C516.924 131.473 515.359 132.12 513.503 132.129L493.343 132.218C491.487 132.226 489.885 131.593 488.535 130.319C487.249 128.981 486.602 127.384 486.594 125.528L486.505 105.368C486.496 103.512 487.129 101.941 488.404 100.655C489.742 99.3054 491.339 98.6263 493.195 98.6181L513.355 98.5289C515.211 98.5207 516.782 99.1858 518.067 100.524C519.417 101.798 520.096 103.363 520.104 105.219L520.193 125.379ZM513.478 126.369L513.38 104.289L493.22 104.378L493.318 126.458L513.478 126.369ZM560.476 111.761L553.756 111.79L553.722 104.11L540.282 104.17L540.405 132.01L533.686 132.039L533.537 98.4397L540.257 98.4099L540.278 103.21L545.057 98.3887L553.697 98.3505C555.553 98.3423 557.124 99.0073 558.41 100.346C559.759 101.62 560.438 103.185 560.446 105.041L560.476 111.761ZM608.382 98.1086L602.648 103.894L578.648 104L578.746 126.08L598.906 125.991L598.821 106.791L605.541 106.761L605.711 145.161C605.719 147.017 605.054 148.588 603.715 149.874C602.441 151.223 600.876 151.902 599.02 151.911L571.181 152.034L576.915 146.248L598.995 146.151L598.91 126.855L593.171 131.776L578.771 131.84C576.915 131.848 575.313 131.215 573.963 129.941C572.677 128.603 572.03 127.006 572.022 125.15L571.933 104.99C571.924 103.134 572.557 101.563 573.832 100.277C575.17 98.9275 576.767 98.2484 578.623 98.2402L608.382 98.1086Z" fill="white"/>
<path fill-rule="evenodd" clip-rule="evenodd" d="M601.961 103.722C673.097 118.816 750.233 135.68 833.206 153.835C756.486 131.623 679.607 114.326 601.961 103.722Z" fill="#923C7F"/>
<path fill-rule="evenodd" clip-rule="evenodd" d="M168.866 30.1044C269.938 36.6855 415.29 64.1109 601.961 103.722C673.097 118.816 750.233 135.68 833.206 153.835L738.44 148.472C775.446 150.586 800.71 152.016 833.206 153.835C528.253 -18.7611 304.351 -23.3942 168.866 30.1044Z" fill="#FF9EEA"/>
</svg>
